<svg width="121" height="21" viewBox="0 0 121 21" fill="none" xmlns="http://www.w3.org/2000/svg">
<path d="M0.3125 1.52344C0.828125 1.58594 1.29688 1.63281 1.71875 1.66406C2.125 1.69531 2.47656 1.72656 2.77344 1.75781C3.11719 1.78906 3.42188 1.8125 3.6875 1.82812C3.96875 1.82812 4.32812 1.82031 4.76562 1.80469C5.14062 1.78906 5.61719 1.76563 6.19531 1.73438C6.77344 1.70312 7.48438 1.64844 8.32812 1.57031C7.92188 1.80469 7.58594 2.03906 7.32031 2.27344C7.07031 2.50781 6.875 2.71875 6.73438 2.90625C6.5625 3.125 6.4375 3.34375 6.35938 3.5625C6.3125 3.85938 6.32812 4.4375 6.40625 5.29688C6.4375 5.65625 6.48438 6.10156 6.54688 6.63281C6.625 7.14844 6.71875 7.76562 6.82812 8.48438C6.95312 9.1875 7.10156 10 7.27344 10.9219C7.46094 11.8438 7.67188 12.8906 7.90625 14.0625C8.21875 13.1719 8.47656 12.3828 8.67969 11.6953C8.88281 10.9922 9.05469 10.3906 9.19531 9.89062C9.35156 9.32812 9.48438 8.82812 9.59375 8.39062C9.70312 7.9375 9.83594 7.35156 9.99219 6.63281C10.1172 6.02344 10.2812 5.23438 10.4844 4.26562C10.6875 3.29688 10.9375 2.10156 11.2344 0.679688L12.0781 0.796875C12.1562 1.90625 12.2344 2.88281 12.3125 3.72656C12.4062 4.57031 12.4844 5.28906 12.5469 5.88281C12.6094 6.57031 12.6719 7.16406 12.7344 7.66406C12.7969 8.11719 12.8906 8.64062 13.0156 9.23438C13.125 9.73438 13.2656 10.3516 13.4375 11.0859C13.6094 11.8047 13.8359 12.6172 14.1172 13.5234C14.3984 12.4141 14.6484 11.4219 14.8672 10.5469C15.1016 9.67188 15.2969 8.89844 15.4531 8.22656C15.625 7.55469 15.7656 6.97656 15.875 6.49219C16 6.00781 16.1016 5.60156 16.1797 5.27344C16.3516 4.49219 16.4531 3.96875 16.4844 3.70312C16.4688 3.40625 16.3984 3.11719 16.2734 2.83594C16.1641 2.58594 15.9922 2.3125 15.7578 2.01562C15.5234 1.71875 15.1797 1.42969 14.7266 1.14844C15.6797 1.17969 16.4531 1.20313 17.0469 1.21875C17.6562 1.21875 18.1406 1.21875 18.5 1.21875H19.4375H20.2812C20.5938 1.21875 21 1.21875 21.5 1.21875C22.0156 1.20313 22.6719 1.17969 23.4688 1.14844C22.7812 1.50781 22.2266 1.83594 21.8047 2.13281C21.3828 2.42969 21.0547 2.67969 20.8203 2.88281C20.5391 3.13281 20.3359 3.34375 20.2109 3.51562C20.0859 3.82812 19.8828 4.53125 19.6016 5.625C19.4766 6.09375 19.3359 6.67969 19.1797 7.38281C19.0234 8.07031 18.8359 8.89844 18.6172 9.86719C18.4141 10.8359 18.1797 11.9688 17.9141 13.2656C17.6484 14.5469 17.3516 16.0156 17.0234 17.6719L12.9688 17.25L11.2344 9.96094C10.9688 11.2891 10.7578 12.3672 10.6016 13.1953C10.4453 14.0078 10.3281 14.6406 10.25 15.0938C10.1562 15.6406 10.1016 16.0391 10.0859 16.2891C10.0703 16.5078 10.0547 16.7188 10.0391 16.9219C10.0234 17.0938 10 17.2812 9.96875 17.4844C9.95312 17.6875 9.92969 17.875 9.89844 18.0469H5.75C5.34375 16.2656 4.97656 14.6953 4.64844 13.3359C4.33594 11.9609 4.05469 10.7578 3.80469 9.72656C3.55469 8.69531 3.33594 7.82031 3.14844 7.10156C2.97656 6.38281 2.82031 5.78125 2.67969 5.29688C2.36719 4.17188 2.14062 3.47656 2 3.21094C1.89062 3.08594 1.75 2.9375 1.57812 2.76562C1.4375 2.625 1.26562 2.45312 1.0625 2.25C0.84375 2.03125 0.59375 1.78906 0.3125 1.52344ZM20.9375 7.52344L25.25 7.57031C25 8.52344 24.8125 9.33594 24.6875 10.0078C24.5781 10.6797 24.5078 11.2422 24.4766 11.6953C24.4141 12.2109 24.3984 12.6484 24.4297 13.0078C24.4766 13.3359 24.5547 13.6875 24.6641 14.0625C24.7578 14.375 24.8984 14.7344 25.0859 15.1406C25.2734 15.5469 25.5234 15.9531 25.8359 16.3594C25.6484 16.2969 25.4453 16.25 25.2266 16.2188C25.0078 16.1875 24.8047 16.1641 24.6172 16.1484C24.3984 16.1328 24.1797 16.1328 23.9609 16.1484C23.7422 16.1641 23.5 16.1875 23.2344 16.2188C23.0156 16.25 22.75 16.2891 22.4375 16.3359C22.125 16.3828 21.7969 16.4453 21.4531 16.5234C21.6875 15.8203 21.8672 15.2109 21.9922 14.6953C22.1328 14.1797 22.2344 13.75 22.2969 13.4062C22.3594 13 22.3984 12.6719 22.4141 12.4219C22.4141 12.1094 22.4141 11.7578 22.4141 11.3672C22.4141 10.9609 22.4141 10.5703 22.4141 10.1953C22.4141 9.82031 22.4062 9.49219 22.3906 9.21094C22.375 8.91406 22.3438 8.72656 22.2969 8.64844L22.0625 8.41406C21.9688 8.33594 21.8281 8.22656 21.6406 8.08594C21.4688 7.92969 21.2344 7.74219 20.9375 7.52344ZM22.6016 3.91406C22.9297 3.74219 23.2578 3.69531 23.5859 3.77344C23.9297 3.85156 24.1953 4 24.3828 4.21875C24.5703 4.4375 24.6328 4.69531 24.5703 4.99219C24.5234 5.28906 24.2734 5.57812 23.8203 5.85938C23.3672 6.125 22.9688 6.21875 22.625 6.14062C22.2812 6.0625 22.0391 5.89844 21.8984 5.64844C21.7578 5.39844 21.7344 5.10938 21.8281 4.78125C21.9219 4.4375 22.1797 4.14844 22.6016 3.91406ZM27.4062 15.4219C27.5156 14.9062 27.5938 14.4531 27.6406 14.0625C27.7031 13.6562 27.75 13.3203 27.7812 13.0547C27.8125 12.7422 27.8281 12.4766 27.8281 12.2578C27.8125 11.9922 27.7969 11.6797 27.7812 11.3203C27.7812 10.9453 27.7656 10.5781 27.7344 10.2188C27.7188 9.84375 27.6953 9.51562 27.6641 9.23438C27.6328 8.9375 27.5938 8.72656 27.5469 8.60156C27.4844 8.47656 27.3984 8.34375 27.2891 8.20312C27.0703 7.9375 26.75 7.67969 26.3281 7.42969C26.6875 7.35156 26.9922 7.28906 27.2422 7.24219C27.5078 7.17969 27.7266 7.125 27.8984 7.07812C28.0859 7.01562 28.25 6.96094 28.3906 6.91406C28.5156 6.86719 28.6641 6.82031 28.8359 6.77344C28.9766 6.74219 29.1484 6.70312 29.3516 6.65625C29.5547 6.60938 29.7891 6.55469 30.0547 6.49219L29.9844 8.625C30.4844 8.03125 30.9922 7.58594 31.5078 7.28906C32.0234 6.99219 32.5078 6.78125 32.9609 6.65625C33.4766 6.5 33.9844 6.42188 34.4844 6.42188C35.1094 6.45312 35.6875 6.55469 36.2188 6.72656C36.7656 6.89844 37.2344 7.10156 37.625 7.33594C38.0312 7.55469 38.3594 7.78906 38.6094 8.03906C38.8594 8.28906 39.0078 8.50781 39.0547 8.69531C39.2422 9.30469 39.2891 9.86719 39.1953 10.3828C39.1016 10.8828 38.9766 11.375 38.8203 11.8594C38.6797 12.3281 38.5547 12.7969 38.4453 13.2656C38.3516 13.7344 38.3906 14.2422 38.5625 14.7891C38.625 14.9297 38.6875 15.0703 38.75 15.2109C38.8125 15.3359 38.8906 15.4609 38.9844 15.5859C39.0781 15.7109 39.1875 15.8125 39.3125 15.8906C39.1406 15.875 38.9688 15.8672 38.7969 15.8672C38.625 15.8516 38.4688 15.8359 38.3281 15.8203C38.1562 15.8047 38 15.7891 37.8594 15.7734C37.7031 15.7578 37.4922 15.75 37.2266 15.75C36.7734 15.75 36.0703 15.7734 35.1172 15.8203C35.2578 15.4922 35.3672 15.2188 35.4453 15C35.5391 14.7656 35.6172 14.5781 35.6797 14.4375C35.7422 14.2656 35.7891 14.1328 35.8203 14.0391C36.0078 13.5859 36.1172 13.0703 36.1484 12.4922C36.1953 11.9141 36.1562 11.3281 36.0312 10.7344C35.9844 10.5312 35.9062 10.2891 35.7969 10.0078C35.6875 9.72656 35.5391 9.45312 35.3516 9.1875C35.1797 8.92188 34.9688 8.69531 34.7188 8.50781C34.4844 8.32031 34.2109 8.21094 33.8984 8.17969C33.5859 8.14844 33.2344 8.22656 32.8438 8.41406C32.4688 8.60156 32.0625 8.94531 31.625 9.44531C31.2969 9.86719 31.0391 10.3828 30.8516 10.9922C30.6797 11.5078 30.5625 12.1562 30.5 12.9375C30.4375 13.7031 30.5312 14.6016 30.7812 15.6328C30.5625 15.6016 30.3594 15.5859 30.1719 15.5859C29.9844 15.5703 29.8281 15.5547 29.7031 15.5391C29.5469 15.5234 29.4062 15.5078 29.2812 15.4922C29.1406 15.4922 28.9844 15.4844 28.8125 15.4688C28.6562 15.4688 28.4609 15.4688 28.2266 15.4688C27.9922 15.4531 27.7188 15.4375 27.4062 15.4219ZM40.7422 9.39844C41.3516 9.41406 41.9062 9.42188 42.4062 9.42188C42.9219 9.42188 43.3672 9.42188 43.7422 9.42188C44.1797 9.42188 44.5781 9.41406 44.9375 9.39844C45.3125 9.39844 45.7891 9.38281 46.3672 9.35156C46.8672 9.33594 47.4922 9.3125 48.2422 9.28125C49.0078 9.25 49.9375 9.21094 51.0312 9.16406L50.9141 11.5547C50.0391 11.4922 49.3047 11.4531 48.7109 11.4375C48.1328 11.4062 47.6641 11.3828 47.3047 11.3672C46.8828 11.3516 46.5391 11.3516 46.2734 11.3672C46.0078 11.3828 45.6328 11.4062 45.1484 11.4375C44.7422 11.4688 44.1875 11.5078 43.4844 11.5547C42.7969 11.5859 41.9219 11.6406 40.8594 11.7188L40.7422 9.39844ZM66.5703 0.84375C66.3516 1.34375 66.1562 1.78125 65.9844 2.15625C65.8125 2.53125 65.6641 2.85156 65.5391 3.11719C65.3984 3.41406 65.2812 3.67969 65.1875 3.91406C65.1094 4.08594 65.0078 4.32031 64.8828 4.61719C64.7578 4.88281 64.6016 5.23438 64.4141 5.67188C64.2422 6.09375 64.0156 6.64062 63.7344 7.3125C63.5938 6.73438 63.4219 6.22656 63.2188 5.78906C63.0156 5.35156 62.7969 4.96875 62.5625 4.64062C62.3281 4.3125 62.0781 4.04688 61.8125 3.84375C61.5625 3.625 61.3125 3.44531 61.0625 3.30469C60.4844 2.99219 59.875 2.82031 59.2344 2.78906C58.3906 2.83594 57.7266 2.97656 57.2422 3.21094C56.7734 3.42969 56.4297 3.6875 56.2109 3.98438C55.9922 4.26562 55.875 4.5625 55.8594 4.875C55.8438 5.17188 55.8828 5.42188 55.9766 5.625C56.0547 5.8125 56.3281 6.03125 56.7969 6.28125C57.2812 6.53125 57.8594 6.82031 58.5312 7.14844C59.2188 7.46094 59.9531 7.82031 60.7344 8.22656C61.5156 8.61719 62.2344 9.05469 62.8906 9.53906C63.5625 10.0078 64.125 10.5234 64.5781 11.0859C65.0469 11.6328 65.3047 12.2188 65.3516 12.8438C65.3984 13.6406 65.3906 14.3594 65.3281 15C65.2656 15.6406 65.0469 16.1875 64.6719 16.6406C64.2969 17.0938 63.7109 17.4531 62.9141 17.7188C62.1328 17.9844 61.0469 18.1484 59.6562 18.2109C58.2188 18.2734 57.0391 18.1953 56.1172 17.9766C55.1953 17.7578 54.4453 17.4609 53.8672 17.0859C53.3047 16.7109 52.8828 16.2969 52.6016 15.8438C52.3359 15.3906 52.1406 14.9609 52.0156 14.5547C51.8906 14.1328 51.8047 13.7734 51.7578 13.4766C51.7109 13.1641 51.6328 12.9766 51.5234 12.9141C51.3984 12.8359 51.2734 12.7656 51.1484 12.7031C51.0391 12.6406 50.9219 12.5859 50.7969 12.5391C50.6719 12.4766 50.5469 12.4219 50.4219 12.375L57.2422 11.2734C56.8516 11.5859 56.5469 11.875 56.3281 12.1406C56.125 12.4062 55.9688 12.6406 55.8594 12.8438C55.7344 13.0781 55.6484 13.2969 55.6016 13.5C55.5703 13.7188 55.6406 13.9922 55.8125 14.3203C55.9844 14.6484 56.2188 14.9688 56.5156 15.2812C56.8281 15.5781 57.1875 15.8281 57.5938 16.0312C58 16.2344 58.4219 16.3203 58.8594 16.2891C59.4062 16.2422 59.8516 16.1094 60.1953 15.8906C60.5391 15.6562 60.7969 15.3672 60.9688 15.0234C61.1562 14.6797 61.2656 14.3047 61.2969 13.8984C61.3281 13.4922 61.2891 13.0938 61.1797 12.7031C61.0859 12.2969 60.9297 11.9219 60.7109 11.5781C60.4922 11.2188 60.2344 10.9219 59.9375 10.6875C59.6719 10.5 59.2578 10.3203 58.6953 10.1484C58.1484 9.97656 57.5312 9.78906 56.8438 9.58594C56.1719 9.38281 55.4766 9.14844 54.7578 8.88281C54.0547 8.61719 53.4141 8.28906 52.8359 7.89844C52.2734 7.50781 51.8203 7.04688 51.4766 6.51562C51.1484 5.98438 51.0234 5.34375 51.1016 4.59375C51.1641 3.95312 51.3672 3.42188 51.7109 3C52.0703 2.5625 52.5156 2.21875 53.0469 1.96875C53.5938 1.70312 54.1953 1.50781 54.8516 1.38281C55.5234 1.25781 56.2031 1.1875 56.8906 1.17188C57.5938 1.14062 58.2812 1.14844 58.9531 1.19531C59.6406 1.24219 60.2578 1.29688 60.8047 1.35938C61.3516 1.42187 61.8125 1.48438 62.1875 1.54688C62.5781 1.59375 62.8203 1.625 62.9141 1.64062C63.3203 1.67188 63.7266 1.66406 64.1328 1.61719C64.4922 1.58594 64.8828 1.51562 65.3047 1.40625C65.7422 1.28125 66.1641 1.09375 66.5703 0.84375ZM66.8047 1.54688C67.1641 1.64062 67.4922 1.71094 67.7891 1.75781C68.1016 1.78906 68.3672 1.8125 68.5859 1.82812C68.8516 1.84375 69.0938 1.85156 69.3125 1.85156C69.5312 1.85156 69.8047 1.83594 70.1328 1.80469C70.7109 1.75781 71.5312 1.64062 72.5938 1.45312C72.4219 1.57813 72.2578 1.70312 72.1016 1.82812C71.9609 1.9375 71.8359 2.04688 71.7266 2.15625L71.375 2.50781C71.1719 2.78906 70.9688 3.26562 70.7656 3.9375C70.5938 4.51562 70.4062 5.32812 70.2031 6.375C70.0156 7.42188 69.8438 8.8125 69.6875 10.5469C70.4531 9.79688 71.1719 9.23438 71.8438 8.85938C72.5312 8.46875 73.1328 8.1875 73.6484 8.01562C74.2578 7.82812 74.8125 7.72656 75.3125 7.71094C75.9531 7.75781 76.5078 7.89062 76.9766 8.10938C77.4609 8.3125 77.8672 8.5625 78.1953 8.85938C78.5391 9.14062 78.8125 9.4375 79.0156 9.75C79.2344 10.0469 79.3984 10.3125 79.5078 10.5469C79.5703 10.7031 79.6172 10.9922 79.6484 11.4141C79.6953 11.8203 79.7031 12.2891 79.6719 12.8203C79.6406 13.3516 79.5547 13.9141 79.4141 14.5078C79.2891 15.0859 79.0781 15.625 78.7812 16.125C78.5 16.6094 78.125 17.0156 77.6562 17.3438C77.2031 17.6719 76.6328 17.8516 75.9453 17.8828C75.1484 17.8828 74.375 17.7891 73.625 17.6016C72.9844 17.4453 72.3047 17.1719 71.5859 16.7812C70.8828 16.375 70.2812 15.7969 69.7812 15.0469C69.7812 15.2344 69.7812 15.4219 69.7812 15.6094C69.7812 15.7812 69.7891 15.9297 69.8047 16.0547C69.8203 16.2266 69.8359 16.375 69.8516 16.5C69.8672 16.6406 69.9062 16.7891 69.9688 16.9453C70.0156 17.0703 70.0859 17.2266 70.1797 17.4141C70.2891 17.5859 70.4297 17.7578 70.6016 17.9297C70.4297 17.9141 70.2578 17.9062 70.0859 17.9062C69.9141 17.8906 69.7422 17.8906 69.5703 17.9062C69.3828 17.9219 69.1953 17.9375 69.0078 17.9531C68.8203 17.9688 68.625 17.9922 68.4219 18.0234C68.25 18.0547 68.0469 18.0938 67.8125 18.1406C67.5781 18.1875 67.3359 18.2422 67.0859 18.3047C67.1328 18.1641 67.1719 17.9609 67.2031 17.6953C67.2344 17.4141 67.2656 17.1094 67.2969 16.7812C67.3438 16.4375 67.375 16.0781 67.3906 15.7031C67.4219 15.3281 67.4531 14.9531 67.4844 14.5781C67.5469 13.7188 67.6016 12.7812 67.6484 11.7656C67.6953 10.1875 67.7031 8.71875 67.6719 7.35938C67.6562 6.78125 67.625 6.19531 67.5781 5.60156C67.5469 5.00781 67.5 4.45312 67.4375 3.9375C67.375 3.40625 67.2891 2.9375 67.1797 2.53125C67.0859 2.10938 66.9609 1.78125 66.8047 1.54688ZM69.8516 12.9609C70.1016 13.4141 70.3672 13.8047 70.6484 14.1328C70.9297 14.4453 71.2109 14.7109 71.4922 14.9297C71.7734 15.1484 72.0469 15.3203 72.3125 15.4453C72.5938 15.5703 72.8594 15.6641 73.1094 15.7266C73.6875 15.8828 74.2578 15.8984 74.8203 15.7734C75.3828 15.6172 75.8203 15.3047 76.1328 14.8359C76.4453 14.3672 76.6875 13.8359 76.8594 13.2422C76.9375 12.9609 76.9844 12.6016 77 12.1641C77.0312 11.7266 76.9844 11.3047 76.8594 10.8984C76.75 10.4766 76.5469 10.1094 76.25 9.79688C75.9531 9.46875 75.5234 9.27344 74.9609 9.21094C74.5703 9.21094 74.1172 9.32031 73.6016 9.53906C73.1484 9.72656 72.6094 10.0391 71.9844 10.4766C71.3594 10.8984 70.6484 11.5312 69.8516 12.375V12.9609ZM87.0547 7.5C87.4609 7.5 87.8828 7.57812 88.3203 7.73438C88.7578 7.875 89.1797 8.0625 89.5859 8.29688C89.9922 8.51562 90.3594 8.75781 90.6875 9.02344C91.0312 9.27344 91.3125 9.51562 91.5312 9.75C91.9219 10.1719 92.1875 10.7422 92.3281 11.4609C92.4844 12.1641 92.5156 12.8906 92.4219 13.6406C92.3281 14.375 92.1094 15.0703 91.7656 15.7266C91.4219 16.3828 90.9453 16.8672 90.3359 17.1797C89.8984 17.3984 89.4688 17.5703 89.0469 17.6953C88.625 17.8203 88.2188 17.9141 87.8281 17.9766C87.4375 18.0391 87.0703 18.0703 86.7266 18.0703C86.3828 18.0703 86.0859 18.0625 85.8359 18.0469C85.3672 18.0156 84.875 17.8516 84.3594 17.5547C83.8594 17.2578 83.3828 16.8906 82.9297 16.4531C82.4922 16.0156 82.1172 15.5391 81.8047 15.0234C81.4922 14.4922 81.3047 13.9922 81.2422 13.5234C81.1484 12.8828 81.1328 12.2109 81.1953 11.5078C81.2578 10.8047 81.4844 10.1562 81.875 9.5625C82.2812 8.96875 82.8906 8.47656 83.7031 8.08594C84.5312 7.69531 85.6484 7.5 87.0547 7.5ZM86.2812 16.5938C86.4531 16.625 86.6875 16.5859 86.9844 16.4766C87.2812 16.3516 87.5703 16.1562 87.8516 15.8906C88.1484 15.625 88.4062 15.2891 88.625 14.8828C88.8594 14.4609 89 13.9531 89.0469 13.3594C89.0938 12.7812 89.0938 12.25 89.0469 11.7656C89.0156 11.2812 88.9453 10.8594 88.8359 10.5C88.7266 10.125 88.6016 9.82031 88.4609 9.58594C88.3203 9.35156 88.1719 9.1875 88.0156 9.09375C87.75 8.95312 87.4297 8.84375 87.0547 8.76562C86.6797 8.67188 86.3594 8.6875 86.0938 8.8125C85.9688 8.875 85.8125 9.00781 85.625 9.21094C85.4375 9.41406 85.25 9.67188 85.0625 9.98438C84.875 10.2812 84.7031 10.625 84.5469 11.0156C84.4062 11.4062 84.3047 11.8125 84.2422 12.2344C84.1797 12.6562 84.1641 13.1094 84.1953 13.5938C84.2422 14.0781 84.3438 14.5391 84.5 14.9766C84.6562 15.3984 84.875 15.7656 85.1562 16.0781C85.4531 16.375 85.8281 16.5469 86.2812 16.5938ZM93.3125 6.77344C93.6094 6.78906 93.875 6.79688 94.1094 6.79688C94.3594 6.78125 94.5703 6.76562 94.7422 6.75C94.9453 6.73438 95.125 6.71875 95.2812 6.70312C95.5156 6.67188 95.7578 6.63281 96.0078 6.58594C96.2266 6.55469 96.4531 6.51562 96.6875 6.46875C96.9375 6.40625 97.1797 6.33594 97.4141 6.25781C97.3203 6.49219 97.2422 6.69531 97.1797 6.86719C97.1172 7.03906 97.0703 7.1875 97.0391 7.3125C96.9922 7.45312 96.9688 7.57031 96.9688 7.66406C96.9531 7.77344 96.9453 7.90625 96.9453 8.0625C96.9297 8.32812 96.9297 8.75781 96.9453 9.35156C97.7578 8.64844 98.4375 8.10156 98.9844 7.71094C99.5469 7.32031 99.9922 7.01562 100.32 6.79688C100.711 6.54688 101.016 6.38281 101.234 6.30469C101.812 6.21094 102.32 6.34375 102.758 6.70312C102.945 6.85938 103.125 7.07031 103.297 7.33594C103.469 7.58594 103.617 7.92188 103.742 8.34375C103.867 8.76562 103.961 9.27344 104.023 9.86719C104.086 10.4453 104.094 11.1406 104.047 11.9531C103.719 11.9844 103.422 12.0156 103.156 12.0469C102.906 12.0781 102.695 12.1016 102.523 12.1172C102.32 12.1484 102.133 12.1641 101.961 12.1641L101.328 12.2344C101.109 12.2656 100.836 12.2969 100.508 12.3281C100.195 12.3438 99.8125 12.375 99.3594 12.4219C100.016 11.8906 100.438 11.4297 100.625 11.0391C100.828 10.6328 100.914 10.2969 100.883 10.0312C100.852 9.73438 100.711 9.47656 100.461 9.25781C100.164 9.08594 99.8438 9.02344 99.5 9.07031C99.2031 9.10156 98.8594 9.23438 98.4688 9.46875C98.0781 9.70312 97.6641 10.1406 97.2266 10.7812C97.2578 11.7812 97.2891 12.6094 97.3203 13.2656C97.3672 13.9219 97.4062 14.4531 97.4375 14.8594C97.4844 15.3281 97.5234 15.6953 97.5547 15.9609C97.6016 16.1953 97.6953 16.4453 97.8359 16.7109C97.9453 16.9297 98.1016 17.1719 98.3047 17.4375C98.5078 17.7031 98.7734 17.9688 99.1016 18.2344C98.4141 18.2031 97.8516 18.2031 97.4141 18.2344C97.1484 18.25 96.9141 18.2656 96.7109 18.2812C96.4922 18.3125 96.2578 18.3438 96.0078 18.375C95.7891 18.4062 95.5312 18.4375 95.2344 18.4688C94.9531 18.5156 94.6406 18.5625 94.2969 18.6094C94.4219 18.4375 94.5234 18.2344 94.6016 18C94.6797 17.7812 94.7422 17.5703 94.7891 17.3672C94.8516 17.1328 94.8984 16.8906 94.9297 16.6406C94.9453 16.4219 94.9531 16.0938 94.9531 15.6562C94.9688 15.2188 94.9609 14.7266 94.9297 14.1797C94.9141 13.6172 94.8906 13.0391 94.8594 12.4453C94.8281 11.8359 94.7891 11.2656 94.7422 10.7344C94.6953 10.2031 94.6406 9.74219 94.5781 9.35156C94.5312 8.94531 94.4766 8.66406 94.4141 8.50781C94.3359 8.32031 94.2422 8.13281 94.1328 7.94531C94.0391 7.77344 93.9219 7.59375 93.7812 7.40625C93.6406 7.20312 93.4844 6.99219 93.3125 6.77344ZM104.797 1.10156C104.969 1.17969 105.172 1.23437 105.406 1.26562C105.656 1.29688 105.891 1.3125 106.109 1.3125C106.375 1.3125 106.648 1.30469 106.93 1.28906C107.211 1.27344 107.555 1.24219 107.961 1.19531C108.289 1.16406 108.695 1.125 109.18 1.07812C109.664 1.03125 110.203 0.96875 110.797 0.890625C110.578 1 110.391 1.11719 110.234 1.24219C110.078 1.36719 109.945 1.49219 109.836 1.61719C109.711 1.75781 109.609 1.89844 109.531 2.03906C109.422 2.22656 109.273 2.55469 109.086 3.02344C108.914 3.47656 108.734 3.98438 108.547 4.54688C108.375 5.10938 108.219 5.67969 108.078 6.25781C107.953 6.83594 107.883 7.32812 107.867 7.73438C107.852 8.07812 107.836 8.46875 107.82 8.90625C107.805 9.28125 107.789 9.74219 107.773 10.2891C107.758 10.8359 107.742 11.4609 107.727 12.1641C108.852 11.3516 109.719 10.7031 110.328 10.2188C110.938 9.71875 111.383 9.33594 111.664 9.07031C111.992 8.77344 112.188 8.5625 112.25 8.4375C112.234 8.34375 112.195 8.24219 112.133 8.13281C112.055 8.03906 111.945 7.92969 111.805 7.80469C111.664 7.67969 111.453 7.53906 111.172 7.38281C111.578 7.42969 111.93 7.46094 112.227 7.47656C112.539 7.49219 112.805 7.50781 113.023 7.52344C113.273 7.53906 113.492 7.53906 113.68 7.52344C113.883 7.52344 114.133 7.51562 114.43 7.5C114.945 7.48438 115.742 7.46094 116.82 7.42969C115.773 7.97656 114.945 8.44531 114.336 8.83594C113.992 9.05469 113.688 9.25781 113.422 9.44531C113.156 9.64844 112.883 9.85938 112.602 10.0781C112.352 10.2656 112.062 10.4844 111.734 10.7344C111.422 10.9844 111.109 11.25 110.797 11.5312C111.344 12.4219 111.82 13.1562 112.227 13.7344C112.648 14.3125 113 14.7812 113.281 15.1406C113.609 15.5625 113.898 15.8984 114.148 16.1484C114.398 16.3828 114.727 16.6484 115.133 16.9453C115.477 17.2109 115.922 17.5234 116.469 17.8828C117.031 18.2266 117.711 18.625 118.508 19.0781C118.102 19 117.711 18.9453 117.336 18.9141C116.961 18.8984 116.641 18.8984 116.375 18.9141C116.047 18.9297 115.75 18.9609 115.484 19.0078C115.203 19.0703 114.891 19.1484 114.547 19.2422C114.25 19.3203 113.898 19.4219 113.492 19.5469C113.102 19.6875 112.672 19.8672 112.203 20.0859C112.5 19.8672 112.719 19.6562 112.859 19.4531C113.016 19.2656 113.125 19.1094 113.188 18.9844C113.25 18.8281 113.273 18.6953 113.258 18.5859C113.18 18.4297 113 18.1094 112.719 17.625C112.453 17.2188 112.062 16.625 111.547 15.8438C111.031 15.0625 110.297 14 109.344 12.6562C109.297 12.6719 109.219 12.7188 109.109 12.7969C109.016 12.875 108.875 12.9844 108.688 13.125C108.5 13.25 108.25 13.4375 107.938 13.6875L108.57 17.7891C108.43 17.8516 108.273 17.9062 108.102 17.9531C107.945 18 107.797 18.0391 107.656 18.0703C107.484 18.1172 107.312 18.1484 107.141 18.1641C106.969 18.1797 106.766 18.2109 106.531 18.2578C106.328 18.2891 106.086 18.3281 105.805 18.375C105.523 18.4375 105.203 18.5078 104.844 18.5859C105.047 18.4453 105.211 18.2812 105.336 18.0938C105.461 17.9219 105.562 17.7578 105.641 17.6016C105.719 17.4297 105.789 17.25 105.852 17.0625C105.883 16.9062 105.914 16.5 105.945 15.8438C105.992 15.1875 106.031 14.4062 106.062 13.5C106.094 12.5781 106.117 11.5938 106.133 10.5469C106.164 9.5 106.18 8.51562 106.18 7.59375C106.18 6.65625 106.172 5.84375 106.156 5.15625C106.141 4.45312 106.109 4 106.062 3.79688C105.984 3.54688 105.891 3.28125 105.781 3C105.688 2.75 105.555 2.46875 105.383 2.15625C105.227 1.82812 105.031 1.47656 104.797 1.10156ZM115.977 7.52344L120.289 7.57031C120.039 8.52344 119.852 9.33594 119.727 10.0078C119.617 10.6797 119.547 11.2422 119.516 11.6953C119.453 12.2109 119.438 12.6484 119.469 13.0078C119.516 13.3359 119.594 13.6875 119.703 14.0625C119.797 14.375 119.938 14.7344 120.125 15.1406C120.312 15.5469 120.562 15.9531 120.875 16.3594C120.688 16.2969 120.484 16.25 120.266 16.2188C120.047 16.1875 119.844 16.1641 119.656 16.1484C119.438 16.1328 119.219 16.1328 119 16.1484C118.781 16.1641 118.539 16.1875 118.273 16.2188C118.055 16.25 117.789 16.2891 117.477 16.3359C117.164 16.3828 116.836 16.4453 116.492 16.5234C116.727 15.8203 116.906 15.2109 117.031 14.6953C117.172 14.1797 117.273 13.75 117.336 13.4062C117.398 13 117.438 12.6719 117.453 12.4219C117.453 12.1094 117.453 11.7578 117.453 11.3672C117.453 10.9609 117.453 10.5703 117.453 10.1953C117.453 9.82031 117.445 9.49219 117.43 9.21094C117.414 8.91406 117.383 8.72656 117.336 8.64844L117.102 8.41406C117.008 8.33594 116.867 8.22656 116.68 8.08594C116.508 7.92969 116.273 7.74219 115.977 7.52344ZM117.641 3.91406C117.969 3.74219 118.297 3.69531 118.625 3.77344C118.969 3.85156 119.234 4 119.422 4.21875C119.609 4.4375 119.672 4.69531 119.609 4.99219C119.562 5.28906 119.312 5.57812 118.859 5.85938C118.406 6.125 118.008 6.21875 117.664 6.14062C117.32 6.0625 117.078 5.89844 116.938 5.64844C116.797 5.39844 116.773 5.10938 116.867 4.78125C116.961 4.4375 117.219 4.14844 117.641 3.91406Z" fill="white"/>
</svg>
